/* XPM */
static char *Pngtree___incomprehensible_black_hole_4537282__1_1711086469[] = {
/* columns rows colors chars-per-pixel */
"40 40 148 2 ",
"   c None",
".  c #050202",
"X  c #0B0404",
"o  c #140606",
"O  c #1B0606",
"+  c #170807",
"@  c #1A0807",
"#  c #170808",
"$  c #1C0909",
"%  c #220606",
"&  c #2F0506",
"*  c #2C0708",
"=  c #230A09",
"-  c #2B0909",
";  c #330707",
":  c #390506",
">  c #340909",
",  c #3A0809",
"<  c #420505",
"1  c #4D0606",
"2  c #450C06",
"3  c #430708",
"4  c #430909",
"5  c #520604",
"6  c #540905",
"7  c #590906",
"8  c #500808",
"9  c #650507",
"0  c #6D0707",
"q  c #610C03",
"w  c #760905",
"e  c #7B0A05",
"r  c #631006",
"t  c #820E05",
"y  c #8A0D04",
"u  c #940E04",
"i  c #980D03",
"p  c #851602",
"a  c #8E1C01",
"s  c #951404",
"d  c #9A1102",
"f  c #951D04",
"g  c #9E1903",
"h  c #A51D03",
"j  c #A91D02",
"k  c #B41C02",
"l  c #952202",
"z  c #952D01",
"x  c #A22401",
"c  c #A42F01",
"v  c #AA2D01",
"b  c #B02402",
"n  c #A33501",
"m  c #B13100",
"M  c #BB3000",
"N  c #C02F01",
"B  c #C33C01",
"V  c #CC3A00",
"C  c #A74801",
"Z  c #B44500",
"A  c #B24B03",
"S  c #BB5101",
"D  c #C74C01",
"F  c #CB5401",
"G  c #C15C00",
"H  c #D35001",
"J  c #D45A00",
"K  c #C46403",
"L  c #CC6701",
"P  c #D26101",
"I  c #D76800",
"U  c #C27101",
"Y  c #CB7400",
"T  c #CC7E02",
"R  c #D67601",
"E  c #DD7A00",
"W  c #E17000",
"Q  c #E07C00",
"!  c #E9711F",
"~  c #E87D1B",
"^  c #F07C1E",
"/  c #F14F2B",
"(  c #ED5B26",
")  c #EF5629",
"_  c #F05C27",
"`  c #F2562A",
"'  c #FC542D",
"]  c #FB592B",
"[  c #EA6624",
"{  c #EA6821",
"}  c #F46326",
"|  c #F66E23",
" . c #F96C25",
".. c #F76228",
"X. c #FC602A",
"o. c #ED7121",
"O. c #F77123",
"+. c #FB7225",
"@. c #FA7C21",
"#. c #DC8401",
"$. c #D68A03",
"%. c #D59205",
"&. c #DC9B06",
"*. c #DC9309",
"=. c #E58600",
"-. c #EC8101",
";. c #EC8C01",
":. c #E78E09",
">. c #E49204",
",. c #E99404",
"<. c #E59902",
"1. c #EA9B05",
"2. c #E1970E",
"3. c #E49B0F",
"4. c #F59D02",
"5. c #E38715",
"6. c #ED8516",
"7. c #E28C13",
"8. c #EB8816",
"9. c #ED801C",
"0. c #F08E10",
"q. c #F4861D",
"w. c #FB8D1B",
"e. c #F49414",
"r. c #F29811",
"t. c #FB9C16",
"y. c #F5921A",
"u. c #FC9D18",
"i. c #D5A002",
"p. c #D8A803",
"a. c #E5A303",
"s. c #EEA107",
"d. c #E1AE05",
"f. c #EDA906",
"g. c #E2A40C",
"h. c #ECA20B",
"j. c #E7AD08",
"k. c #EAAB08",
"l. c #F3AC04",
"z. c #F5AA0F",
"x. c #EDB804",
"c. c #F3BC05",
"v. c #F9B20A",
"b. c #F1A212",
"n. c #FBA215",
"m. c #FCAA12",
"M. c #FBB012",
"N. c #FD8220",
/* pixels */
"                                                                                ",
"                                                                                ",
"                                                                                ",
"                                                                                ",
"                                                                                ",
"                                                                                ",
"                                                                                ",
"                                                                                ",
"                              ' +.w.n.M.m.n.N.X.                                ",
"                            @.m.c.;.;.=.W -.s.M.u.X.                            ",
"                        ] t.l.#.A j y t e i b H <.v.@.                          ",
"                      ] e.;.V s r 3 > > > 4 6 e h K j.@.                        ",
"                    ' e.;.N e 3 - = = = $ = = - 5 y D s. .                      ",
"                    @.l.F w > = = $ $ # # # $ $ = 1 d L z.'                     ",
"                  ' z.E s , = % $ # o X o o o + $ = 7 h >.@.                    ",
"                  O.x.B 9 - % @ o X X X X X X o + $ * e J r.'                   ",
"                  y.a.b 8 = # # X X . X . X X o o # % 5 M :.]                   ",
"                  b.E u > # o X X X . . . . X X X # O : v ,. .                  ",
"                ' b.J e - @ o X X . . . . . . X X o O * l ,.+.                  ",
"                ' 8.I t - @ o X . . . . . . X X X + O : x 1.O.                  ",
"                  r.#.s , $ # X X . . . . . . X X O O < m 1. .                  ",
"                  q.<.k 4 $ # X X . X . X . X X o O % 5 G h.]                   ",
"                  ..h.V 0 = $ # X X X . X X X o O O & p R 6.                    ",
"                    r.E h 8 = $ # X X X X X o o O % 1 Z >.}                     ",
"                     .k.J s 4 = $ O o + + O O O % < a $.8.                      ",
"                      ~ a.F l 7 ; = % = O % % % < a $.3.`                       ",
"                        9.d.Y s 0 6 1 < 2 2 8 q z T 2._                         ",
"                          o.g.T S A C n n c Z U $.5.)                           ",
"                            ` ~ 2.&.p.&.$.$.*.7.[                               ",
"                                / ( { ! ! [ )                                   ",
"                                                                                ",
"                                                                                ",
"                                                                                ",
"                                                                                ",
"                                                                                ",
"                                                                                ",
"                                                                                ",
"                                                                                ",
"                                                                                ",
"                                                                                "
};
