/* XPM */
static char *pngwing_com__1___1_1711086712[] = {
/* columns rows colors chars-per-pixel */
"40 40 189 2 ",
"   c None",
".  c #607073",
"X  c #7A886D",
"o  c #B0AE3E",
"O  c #B9B73B",
"+  c #BCBB3D",
"@  c #B8B436",
"#  c #C4BF32",
"$  c #C2BE39",
"%  c #DBCF1B",
"&  c #DED21A",
"*  c #EDDD11",
"=  c #E2D61B",
"-  c #E9DC1A",
";  c #F8E70C",
":  c #FFED0B",
">  c #FFF009",
",  c #FFF107",
"<  c #EFE11E",
"1  c #F4E514",
"2  c #F6E816",
"3  c #F9E913",
"4  c #F3E51B",
"5  c #F7E815",
"6  c #CCC62F",
"7  c #D2C926",
"8  c #DBD227",
"9  c #DFD62F",
"0  c #CAC432",
"q  c #CCC83F",
"w  c #D5CE33",
"e  c #D1CE3F",
"r  c #DBD734",
"t  c #DFDA33",
"y  c #D9D439",
"u  c #DBDB3A",
"i  c #E0D72E",
"p  c #E3DA2C",
"a  c #E2D724",
"s  c #ECE122",
"d  c #89925E",
"f  c #979D56",
"g  c #ACAB41",
"h  c #A3A64B",
"j  c #AAAC4E",
"k  c #A7A743",
"l  c #ABB44D",
"z  c #B1B142",
"x  c #B7B84D",
"c  c #A6AB5B",
"v  c #AFB253",
"b  c #B4BA5F",
"n  c #B8BD55",
"m  c #838D61",
"M  c #89956C",
"N  c #8E9764",
"B  c #8D9D76",
"V  c #919D77",
"C  c #9AA36E",
"Z  c #9DA773",
"A  c #96A479",
"S  c #9FAB75",
"D  c #A5AC6E",
"F  c #ABB463",
"G  c #AFB56A",
"H  c #A9BA66",
"J  c #B3BB68",
"K  c #A3AE71",
"L  c #A7B77A",
"P  c #C2BF43",
"I  c #BCC145",
"U  c #BFC154",
"Y  c #AEC274",
"T  c #B6C870",
"R  c #B6C86C",
"E  c #CECC44",
"W  c #C7C548",
"Q  c #D1CE41",
"!  c #D0CC4A",
"~  c #CDD24B",
"^  c #D7D244",
"/  c #C5CA54",
"(  c #C2C351",
")  c #C9D256",
"_  c #1A3CAA",
"`  c #193AA6",
"'  c #3F5896",
"]  c #1E41B3",
"[  c #2345AF",
"{  c #3755A7",
"}  c #2B4DB3",
"|  c #2347B9",
" . c #3657BF",
".. c #415D9D",
"X. c #5A6E85",
"o. c #536A8C",
"O. c #5A708D",
"+. c #4B6596",
"@. c #48639C",
"#. c #5A7397",
"$. c #667983",
"%. c #637C96",
"&. c #4C6CAD",
"*. c #4E70AC",
"=. c #5973A5",
"-. c #4C6ABC",
";. c #4B76BD",
":. c #5676B9",
">. c #2449C2",
",. c #2C5DCC",
"<. c #375BC6",
"1. c #2D59DD",
"2. c #335DD3",
"3. c #2F61CA",
"4. c #3B62CC",
"5. c #3062C4",
"6. c #3660D1",
"7. c #3B6BD7",
"8. c #3A64DB",
"9. c #305CE4",
"0. c #3569E1",
"q. c #4165C3",
"w. c #496AC6",
"e. c #4D71C8",
"r. c #4477C5",
"t. c #5479C3",
"y. c #446BD9",
"u. c #427DDD",
"i. c #5C7FD1",
"p. c #577CDA",
"a. c #567BD4",
"s. c #4973EE",
"d. c #4772F7",
"f. c #69828B",
"g. c #758C84",
"h. c #718380",
"j. c #67849A",
"k. c #6E9399",
"l. c #729594",
"z. c #7EA198",
"x. c #5883B1",
"c. c #5F90B7",
"v. c #6A87AD",
"b. c #6F8AAD",
"n. c #6A84A0",
"m. c #738CA5",
"M. c #7997A4",
"N. c #718DB4",
"B. c #718BB9",
"V. c #6E93BE",
"C. c #7C94B6",
"Z. c #6987BA",
"A. c #5887D8",
"S. c #5985C4",
"D. c #608BCF",
"F. c #7A9EC4",
"G. c #6B92DA",
"H. c #7DADC3",
"J. c #69A3DF",
"K. c #79A6DE",
"L. c #4683E7",
"P. c #5B86EA",
"I. c #5996E4",
"U. c #618BEA",
"Y. c #6B94EE",
"T. c #6D98E6",
"R. c #709CEB",
"E. c #7B9EF1",
"W. c #7598F1",
"Q. c #76A2EE",
"!. c #73A0E6",
"~. c #74A0F0",
"^. c #899C86",
"/. c #909E89",
"(. c #8B9E93",
"). c #879B9A",
"_. c #86A485",
"`. c #99A887",
"'. c #9CB382",
"]. c #86A498",
"[. c #95A69D",
"{. c #A2AF91",
"}. c #8197A0",
"|. c #83ACAB",
" X c #91A3A3",
".X c #8FB4A6",
"XX c #81A0B4",
"oX c #89B1B9",
"OX c #81ABC7",
/* pixels */
"                                                                                ",
"                                                                                ",
"                                                                                ",
"                                                                                ",
"                                    2.2.<.2.1.                                  ",
"                            2.*.h.f z $ c $ j M %.w.                            ",
"                        6.%.h & ; : 2 '.B.$ ; : 1 6 M ;.                        ",
"                      &.h * > 3 : : : V ..@ : : : > : 8 ^.7.                    ",
"                  0.f.7 : : : > 3 t / A B F y < : : 3 : ; b t.                  ",
"                0.g.6 : : : s J XXG.U.U.P.P.A.F.'.t : : > 4 U S.                ",
"                j.D C.x 3 ) F.Y.                P.D.L 2 i  X/.F A.              ",
"              x.7 D { f L T.W.                      7.z.E =.o.= J L.            ",
"            u.j , 8 # ].R.                            ,.M.z 6 3 2 |.            ",
"            k.1 : , ) !.                                3.'.> > : ~ I.          ",
"          L.l : : s H.E.                                  r.~ > : 2 |.          ",
"          c.= > : R W.                                      z.3 : > R           ",
"          z.; : 3 oXE.                                      ;.u : : u J.        ",
"          F : : t K.                                        5.H , : < H.        ",
"        u.I 3 : ) Q.                                          _.: 4 1 .X        ",
"        4.c {.G Y Q.                                          l.!  XW .X        ",
"        4.C -.X.L Y.                                          l.Z  .d ).        ",
"        2.v o @ b y.                                          g.w k 0 ).        ",
"        1.v , : e y.                                        ] M : : 5 N.        ",
"          V , : < :.                                        } z : : p i.        ",
"          n.2 : : _.>.                                      @.= : : n s.        ",
"          w.w : : y q.                                    [ N : : : (.          ",
"            A : 3 > A |                                   +.& : , i A.          ",
"            t.9 : > p %.|                               { g : > : `.            ",
"              ^.3 ^ [.F =.|                           { N {.G 1 Q p.            ",
"              8.b D <.d a g.} `                   [ @.@ q w.X.w N.              ",
"                e.C o 0 : 1 l #.} [ _       _ [ ..m % : < g h k.                ",
"                  e.n : : : : * q N $.O.o.$.X k % : : : : s ).d.                ",
"                    y.S 4 , : : > : ; 9 J - ; : : : : : E B.                    ",
"                      9.v.U 2 : > > 4 (.w.j : : : : r `.p.                      ",
"                          8.v.K e a 2 c . 0 2 9 n (.a.                          ",
"                                y.t.b.b.m.b.Z.a.s.                              ",
"                                                                                ",
"                                                                                ",
"                                                                                ",
"                                                                                "
};
