/* XPM */
static char *Asset_161711087965[] = {
/* columns rows colors chars-per-pixel */
"40 40 65 1 ",
"  c #725242",
". c #7E5A47",
"X c #7E5C4A",
"o c #86553F",
"O c #8C573E",
"+ c #8E5A3F",
"@ c #965233",
"# c #985435",
"$ c #90573D",
"% c #955B3E",
"& c #9B5D3E",
"* c #A25E3E",
"= c #9C603F",
"- c #A3603F",
"; c #855740",
": c #845944",
"> c #8D5C43",
", c #835D49",
"< c #895E49",
"1 c #935D42",
"2 c #9A5F41",
"3 c #A35F40",
"4 c #8C6047",
"5 c #86614D",
"6 c #8D614B",
"7 c #956145",
"8 c #9C6344",
"9 c #94634A",
"0 c #9B664A",
"q c #96684E",
"w c #9D694D",
"e c #876457",
"r c #8D6750",
"t c #946751",
"y c #9C6750",
"u c #956A51",
"i c #9C6C52",
"p c #9F7256",
"a c #9D7259",
"s c #A36444",
"d c #A96645",
"f c #A66846",
"g c #A96946",
"h c #A16749",
"j c #A46B4C",
"k c #AA6D4B",
"l c #B06D4C",
"z c #A7704F",
"x c #AD714E",
"c c #A26E51",
"v c #AA6F51",
"b c #A57154",
"n c #AB7353",
"m c #A5755A",
"M c #AA7658",
"N c #AC795C",
"B c #B17654",
"V c #B27956",
"C c #BA7B55",
"Z c #B37B5A",
"A c #B97F5B",
"S c #B6815F",
"D c #BC815D",
"F c #BB8462",
"G c #C28662",
/* pixels */
"fsgBghhlVnevssgkyffvizfjw9zzjMNFkfjfh8cy",
"*sdkdddvxhih&&23f&2dqf8ff8jzwzNZ8&8s2&80",
"ssfkffgnk8w&@#33s23dq8sw8sw8w05z2&22&&2<",
"sdkvgdkvfh7=##3s*22sqwssfwsfs09w2&222809",
"jjcc00wwj0o%%70>71;091779q0775>0111100y<",
"hjZFmmkfkf8wjMb9ic%880000bj7870wMry0jhhh",
"fdgZmnffffffzxffjj&*8s88hM8=%==wMmjh3h3h",
"ssfvNaffffffzxfsjd&&fwsf9if&=&&=vmvk3hhd",
"dddjmNfffff0nnnf0s==f080wpk8&288Mmmnkhkd",
"1<10iw202w0:4in097=7077=09jw727,iaub9,<<",
"jty332322hd807jh===+04==&%=8cj8iZVxjhjkj",
"s1j3*2323ss382ws=====+=#%&&=jfhiAx8-sfgk",
"jth332*332**220&%&&&=+===#&&hh80Zf--sfgf",
"v5jk33*3***2s80s===&+5w=#&&=sshuVfs-sgzx",
"t,<1>>1>:1>189:17+$+9594++44776500j4+8fj",
"<1221121,i20hs888=+qzj880Mrpbizjwhxq8-fk",
"<2&&O&&81h3dkgss8s%0z-f==bqSSSk-d-khs---",
":2&&o%%2ts3fkg&s-s7wnf=h=jqSzxxx-d-8=--d",
"<1&O %&8<hgklksss87jnzf=fwqznSxxkds87-sx",
".o%: :7i,8fjj071o%44q4cjc9+0jwjj0089>9jj",
"988d02bM9200bmbw:==4qwDSSw0kjz=qijj89jkc",
"w3**3diVs220jjf87==7=pDSxkfg-k==ZVh88hkk",
"8**#*fqk2210jf88====0pDSx-fff==0vf=8-8fk",
"<dsdffiVh28yj8=====7MpSDSxffkz==fs8s=8hk",
"<hh77q9b0774001%%1>Oq,pbj00000=400111>>c",
"kvxf8fj8sh4088888s7&%%hzj54q0==009828h%s",
"dklksfhfsh9hs=8s8s1$&&sff9qffff=h0d33***",
"fklkfsfsff988ss=-821&&=f=07-==ffj133s*-s",
"gkxdssskxf60sf8=8-18===s-04ffff=h1333*33",
"w0z82:8hji,40i99>:o:o+4009X+w=9=1<12112$",
"NAk-*=s8-ffjfxwMz7==+qqnnzjzMi==232323*3",
"NDkd--**-ggfggwNn=%==09xVzzkww=0k33333**",
"NGkg-----ggggkiNn=%==+0jVxjjwjsgk*******",
"NDlk---sfgggggiZh&=%=99xnxjxwjfkk-******",
"yg8082279jw78wui9>>7w44iwq0949909w21oO>2",
"ss><VzfkzBS0ddssdjicnzMbw0009wzqtNkd>333",
"*3>1Cdd-dkAy3333dvbkxzBkj=f0=fffwvg33***",
"3*1<ld--dBA03333sbckjjffff==0==01jd3****",
"**2;ds-sdlBw**d3dbwkzxfjzz00f80zemk3-**3",
"&&1;12880w0>>O$17bqwpww9qp0=0==q<tj2*&#$"
};
