/* XPM */
static char *BouncingBall__1_1711082943[] = {
/* columns rows colors chars-per-pixel */
"40 40 35 1 ",
"  c None",
". c black",
"X c #010101",
"o c #0A0B0B",
"O c #0F0F10",
"+ c #0F1010",
"@ c #121213",
"# c #141415",
"$ c #161617",
"% c #343538",
"& c #3E4042",
"* c #484A4D",
"= c #55575B",
"- c #56585D",
"; c #64666C",
": c #75777C",
"> c #82858A",
", c #8C8E95",
"< c #999CA3",
"1 c #9C9FA6",
"2 c #A0A4AB",
"3 c #A4A8AE",
"4 c #AAAEB5",
"5 c #B1B5BC",
"6 c #B6BAC1",
"7 c #BABEC6",
"8 c #C0C5CE",
"9 c #C5CAD3",
"0 c #CDD1DA",
"q c #D2D7E1",
"w c #D5DAE5",
"e c #D9DEE8",
"r c #DEE3EA",
"t c #E5E8EC",
"y c #E8EAEE",
/* pixels */
"                                        ",
"                                        ",
"                                        ",
"                                        ",
"               $$#$#####$               ",
"             .$7000088885$.             ",
"          ..-24rtyyyteweq21-..          ",
"         o;;3yyyyyytyrewwer2;;o         ",
"         *0eryyytytyyyrwwwwee0*         ",
"       o*qwwrytyyyytytrwwwwwwww*o       ",
"      .;0wwwryyytytytyrwwwwwwww0;.      ",
"     .:7ewwwrytyyytyytrwwwwwwwww7:.     ",
"     .1rwwwwryyytyytyyrwwwwwwwwwr1.     ",
"     .<ewwwwetyyyytyttewwwwwwwwwe<.     ",
"     $2ewwwwwetytyyytewwwwwwwwwwe2$     ",
"    $5qwwwwwwwetyyytewwwwwwwwwwwwq5$    ",
"    $8ewwwwwwwweeeeewwwwwwwwwwwwww8$    ",
"    $8ewwwwwwwwwwwwwwwwwwwwwwwwwwe8$    ",
"    @70qwwwwwwwwwwwwwwwwwwwwwwwwq07$    ",
"    $369qqqwwwwwwwwwwwwwwwwwwqqq962@    ",
"    $2667770wwwwwwwwwwwwwwww0777663$    ",
"    $366666789wwwwwwwwwwww987666663$    ",
"    #26666666799qwwwwwwq99766666662#    ",
"    $366666666669000000966666666663$    ",
"    @<5666666666666666666666666665<@    ",
"     @,76666666666666666666666666,#     ",
"     .>76666666666666666666666667>.     ",
"     .:44466666666666666666666444:.     ",
"     .-><1455566666666666655541<>=.     ",
"      .*,<<<<25556666665552<<<<,*.      ",
"       o%<<<<<111466664111<<<<<%o       ",
"         %,11<<<<122221<<<<11,%         ",
"         o**:11<<<<<<<<<<11:**o         ",
"          ..&::<<<<<<<<<<::&..          ",
"             .O>,,,,,,,,>O.             ",
"               O++++++++O               ",
"                                        ",
"                                        ",
"                                        ",
"                                        "
};
